<svg width="855" height="1666" viewBox="0 0 855 1666" fill="none" xmlns="http://www.w3.org/2000/svg">
<path d="M570.571 1246.28L414.606 1665.55L175.925 1380.22L133.63 893.1L325.519 668.051L570.571 1246.28ZM636.383 1520.37L461.052 1649.68L606.675 1258.22L831.058 1108.63L636.383 1520.37ZM275.97 1559.04L113.226 1425.31L151.671 1410.45L275.97 1559.04ZM95.7939 896.64L137.35 1375.25L91.1406 1393.11L1.78809 822.317L95.7939 896.64ZM854.386 1047.41L599.558 1217.29L350.675 630.022L457.542 0L854.386 1047.41ZM313.156 623.981L111.435 860.563L0 772.461L413.37 33.1816L313.156 623.981Z" fill="white"/>
</svg>
